<?xml version="1.0" standalone="no"?>
<!DOCTYPE svg PUBLIC "-//W3C//DTD SVG 20010904//EN"
 "http://www.w3.org/TR/2001/REC-SVG-20010904/DTD/svg10.dtd">
<svg version="1.0" xmlns="http://www.w3.org/2000/svg"
 width="300.000000pt" height="300.000000pt" viewBox="0 0 300.000000 300.000000"
 preserveAspectRatio="xMidYMid meet">
<g transform="translate(0.000000,300.000000) scale(0.100000,-0.100000)"
fill="#000000" opacity="0.05" stroke="none">
<path d="M1856 2370 l-169 -165 -71 23 c-59 20 -84 24 -152 19 -47 -3 -98 -12
-125 -24 l-44 -19 -168 160 c-92 89 -171 162 -175 164 -4 1 -5 -34 -3 -79 l3
-81 124 -120 124 -120 -40 -45 c-39 -45 -72 -117 -85 -186 l-7 -37 55 19 c31
11 102 27 158 37 176 29 466 9 586 -41 20 -8 38 -13 41 -11 7 8 -17 95 -40
140 -11 22 -36 60 -54 82 l-34 42 126 121 125 121 -3 83 -3 82 -169 -165z
m-762 -29 c187 -182 187 -182 262 -155 64 22 203 23 263 0 77 -28 81 -26 220
109 70 69 133 125 140 125 32 0 0 -45 -103 -145 -62 -61 -116 -120 -120 -132
-7 -22 23 -95 44 -108 18 -11 52 -87 43 -96 -5 -5 -25 -4 -47 2 -30 8 -36 14
-30 27 25 58 12 102 -36 127 -55 29 -127 -29 -115 -92 l6 -33 -130 0 -130 0 1
40 c0 44 -21 76 -60 91 -26 10 -55 -1 -84 -32 -19 -20 -24 -74 -8 -84 22 -14
8 -35 -31 -45 -23 -6 -43 -9 -46 -6 -9 8 18 76 41 104 40 47 55 85 44 107 -6
11 -60 70 -119 131 -99 101 -128 144 -98 144 6 0 48 -36 93 -79z m218 -288
c22 -20 23 -41 1 -65 -22 -24 -49 -23 -67 4 -20 29 -20 34 4 58 24 24 38 25
62 3z m409 7 c29 -16 26 -67 -5 -81 -50 -23 -90 36 -50 75 18 19 28 20 55 6z"/>
<path d="M600 1936 l0 -193 53 -49 c28 -26 83 -76 120 -111 l68 -63 -18 -56
c-16 -51 -28 -66 -119 -148 l-102 -91 -1 -177 -1 -178 70 0 70 0 0 143 0 143
29 28 28 27 5 -83 c3 -49 16 -113 30 -156 l25 -74 -43 -41 -43 -42 -3 -173 -3
-172 68 0 67 0 0 133 c0 121 2 136 20 152 19 17 20 17 42 -11 93 -121 275
-224 436 -248 l42 -6 0 676 0 675 -82 -7 c-160 -13 -332 -70 -425 -141 -38
-29 -37 -29 -127 53 l-66 61 0 162 0 161 -70 0 -70 0 0 -194z m100 -5 l5 -144
74 -68 c109 -99 109 -99 180 -56 32 21 64 37 70 37 6 0 11 -16 11 -35 0 -32
-3 -35 -28 -35 -45 0 -89 -57 -71 -92 7 -12 0 -25 -26 -51 -33 -33 -35 -39
-35 -100 0 -51 5 -71 23 -99 l24 -34 -24 -35 c-22 -31 -24 -42 -21 -126 3 -88
4 -93 35 -125 18 -19 34 -49 38 -69 9 -51 40 -97 69 -105 15 -3 29 -17 35 -34
12 -36 102 -130 123 -130 19 0 58 45 58 66 0 8 5 14 10 14 20 0 23 -32 7 -59
-15 -26 -15 -30 0 -51 16 -23 16 -23 -13 -16 -48 13 -145 78 -221 150 -61 57
-77 67 -98 62 -45 -11 -60 -49 -65 -170 -5 -103 -7 -111 -25 -111 -19 0 -20 8
-23 138 l-3 138 41 48 c22 26 40 53 40 61 0 7 -9 43 -20 81 -11 37 -24 100
-29 139 -9 72 -30 110 -59 110 -7 0 -29 -15 -48 -34 l-34 -34 0 -109 c0 -116
-11 -152 -44 -140 -14 6 -16 26 -16 147 0 123 2 142 18 158 189 178 199 192
209 274 l6 50 -117 112 -116 111 0 151 c0 83 3 154 7 158 4 4 16 6 28 4 19 -3
20 -12 25 -147z m500 -196 c0 -22 -4 -25 -35 -25 l-35 0 0 -50 c0 -27 -1 -53
-2 -57 -2 -5 8 -10 22 -11 44 -7 52 -21 48 -87 -3 -50 -10 -70 -36 -105 -27
-38 -32 -52 -32 -102 0 -51 2 -58 19 -58 33 0 51 -28 51 -77 0 -60 -20 -83
-72 -83 -34 0 -38 3 -38 26 0 23 3 25 33 22 29 -3 32 0 35 28 3 28 0 32 -27
37 -63 13 -66 134 -5 228 23 37 34 65 34 91 0 35 -2 38 -30 38 -40 0 -52 26
-48 103 l3 62 55 22 c30 12 56 23 58 23 1 0 2 -11 2 -25z m152 8 c14 -13 18
-31 18 -85 0 -88 -10 -108 -55 -108 -35 0 -35 0 -35 -46 0 -41 2 -45 20 -39
13 4 31 0 45 -9 22 -15 25 -24 25 -81 0 -57 -3 -66 -24 -80 -14 -9 -33 -15
-43 -13 -15 3 -18 -5 -21 -49 l-3 -53 34 0 c19 0 40 -6 46 -14 9 -10 11 -84 9
-264 -3 -229 -5 -252 -22 -271 -20 -21 -60 -28 -71 -12 -3 5 8 19 25 31 24 17
30 29 30 58 l0 38 -40 -4 c-37 -4 -40 -2 -40 22 0 24 4 26 40 26 38 0 40 2 40
30 0 28 -2 30 -40 30 -36 0 -40 3 -40 25 0 23 4 25 40 25 39 0 40 1 40 36 l0
37 -40 -6 c-37 -5 -40 -3 -40 19 0 21 4 24 40 24 l40 0 0 65 0 65 -35 0 c-43
0 -55 20 -55 96 0 67 18 94 62 94 27 0 28 2 28 45 0 42 -2 45 -27 45 -43 0
-63 26 -63 82 0 68 13 88 55 88 l35 0 0 60 0 60 -40 0 c-36 0 -40 3 -40 25 0
23 4 25 42 25 24 0 49 -7 60 -17z m-84 -73 c23 0 12 -29 -19 -51 l-31 -22 -26
27 -27 27 30 24 c26 21 31 23 45 10 9 -8 22 -15 28 -15z m-230 -102 c-2 -18
-10 -23 -40 -25 -21 -1 -38 1 -38 4 0 16 36 43 57 43 19 0 24 -5 21 -22z m70
-77 c2 -11 -6 -34 -17 -50 -11 -15 -25 -40 -31 -55 -5 -14 -16 -26 -24 -26
-29 0 -27 20 3 46 34 29 39 58 15 86 -14 14 -14 20 -4 33 11 13 16 14 34 2 12
-8 22 -24 24 -36z m292 14 c0 -33 -14 -38 -36 -14 -18 20 -18 21 0 35 24 17
36 10 36 -21z m-360 -50 c0 -22 -4 -25 -40 -25 l-40 0 0 -50 c0 -48 1 -50 28
-50 40 0 52 -17 52 -75 0 -58 -12 -75 -52 -75 l-28 0 0 -80 0 -80 30 0 c42 0
51 -25 48 -128 l-3 -87 -21 36 c-17 28 -20 47 -16 87 4 49 3 52 -18 52 -48 0
-60 25 -60 121 0 96 11 119 56 119 21 0 24 5 24 36 0 29 -3 35 -16 30 -9 -4
-27 1 -40 9 -21 14 -24 23 -24 82 0 83 15 103 77 103 39 0 43 -2 43 -25z m213
-63 c16 -17 15 -20 -12 -46 -16 -16 -32 -39 -36 -53 -7 -31 -29 -25 -33 10 -4
30 35 107 53 107 7 0 19 -8 28 -18z m147 -157 c0 -44 -11 -50 -45 -23 l-27 21
29 22 c34 28 43 24 43 -20z m-317 -61 c4 -4 -2 -19 -13 -34 -25 -35 -25 -41 1
-74 33 -42 10 -55 -35 -21 -47 36 -48 70 -4 107 35 29 41 32 51 22z m185 -76
c20 -20 13 -43 -18 -56 -48 -22 -64 0 -32 43 19 27 32 31 50 13z m-70 -110
c-2 -19 -8 -22 -34 -20 -30 3 -32 0 -36 -33 -4 -35 -4 -35 34 -35 34 0 38 -3
38 -25 0 -22 -4 -25 -35 -25 -33 0 -35 -2 -35 -35 0 -26 8 -43 35 -69 22 -23
35 -45 35 -62 0 -24 -2 -25 -17 -13 -81 62 -103 111 -103 224 0 93 15 115 76
115 41 0 45 -2 42 -22z m26 -191 c-20 -24 -44 -26 -44 -2 0 8 10 21 22 29 31
22 46 4 22 -27z m176 -211 c0 -35 -22 -49 -55 -36 l-28 11 34 28 c38 32 49 31
49 -3z"/>
<path d="M2239 1968 l-1 -163 -80 -72 -79 -72 -46 35 c-101 77 -240 124 -415
139 l-78 7 0 -676 0 -677 38 6 c154 26 275 87 386 196 l79 78 19 -22 c16 -19
18 -37 16 -150 l-3 -127 68 0 67 0 0 174 0 174 -44 39 -45 38 26 75 c15 45 27
108 31 158 l5 83 28 -27 29 -28 0 -143 0 -143 70 0 70 0 0 174 0 174 -102 96
c-85 79 -107 105 -124 150 l-21 55 123 112 124 112 0 193 0 194 -70 0 -70 0
-1 -162z m99 -49 l2 -156 -110 -103 c-61 -57 -116 -112 -122 -123 -15 -30 17
-128 56 -169 18 -18 64 -64 104 -101 l73 -68 -3 -142 c-3 -130 -5 -142 -22
-145 -30 -6 -36 16 -36 136 l0 114 -34 34 c-19 19 -41 34 -48 34 -28 0 -48
-36 -57 -106 -6 -39 -19 -99 -31 -135 -28 -89 -26 -103 20 -153 l41 -44 -3
-138 c-3 -131 -4 -139 -23 -139 -19 0 -20 8 -25 114 -6 112 -6 114 -38 142
-18 16 -38 29 -46 29 -7 0 -46 -32 -86 -70 -76 -73 -174 -140 -205 -140 -17 0
-17 1 -2 18 28 30 21 66 -18 101 -39 34 -46 71 -19 109 20 28 34 20 34 -21 1
-40 24 -68 79 -96 40 -21 44 -21 67 -6 40 26 51 61 31 97 -20 35 -14 53 13 38
10 -5 27 -10 38 -10 28 0 64 44 60 73 -2 17 8 37 35 66 37 41 37 42 37 129 0
78 -3 92 -26 126 -22 32 -25 43 -15 57 18 30 13 56 -16 83 l-27 26 32 33 c39
40 40 64 5 125 -39 69 -63 92 -95 92 -25 0 -28 3 -28 35 0 43 12 44 73 5 79
-50 83 -49 170 25 43 37 84 80 92 95 11 21 15 63 15 153 0 68 3 127 7 131 4 4
16 6 28 4 19 -3 20 -11 23 -159z m-613 -182 c24 -34 20 -148 -6 -181 -24 -30
-57 -34 -89 -8 -18 15 -23 30 -25 78 -4 80 9 120 43 132 35 11 59 5 77 -21z
m153 -20 c6 -5 12 -30 12 -55 0 -58 -40 -122 -76 -122 -32 0 -30 12 6 53 38
44 42 97 7 97 -29 0 -47 18 -47 46 0 22 0 22 43 6 23 -8 48 -20 55 -25z m141
-186 c17 -32 31 -61 31 -64 0 -14 -34 -37 -56 -37 -22 0 -24 -4 -24 -50 l0
-50 35 0 c31 0 35 -3 35 -25 0 -22 -4 -25 -35 -25 -54 0 -75 28 -75 100 0 65
21 100 60 100 15 0 20 7 20 29 0 30 -21 45 -51 39 -8 -2 -15 7 -17 20 -3 18 1
22 21 22 19 0 31 -12 56 -59z m-87 -33 c-7 -7 -18 -4 -36 7 -25 17 -26 19 -10
36 16 18 17 18 37 -7 13 -17 16 -29 9 -36z m-322 17 c10 -13 10 -19 -4 -33
-21 -24 -20 -27 6 -62 21 -29 21 -30 3 -50 -10 -11 -22 -20 -27 -20 -4 0 -8
41 -8 90 0 89 6 104 30 75z m168 3 c-6 -16 -36 -34 -44 -26 -3 4 -4 14 -1 23
7 17 51 21 45 3z m-70 -54 c32 -22 31 -92 -2 -123 l-24 -22 22 -23 c20 -19 23
-36 29 -136 3 -63 2 -147 -1 -186 -7 -64 -12 -76 -45 -113 -36 -40 -38 -45
-35 -104 3 -58 5 -62 28 -65 33 -5 50 -20 50 -43 0 -11 -2 -19 -4 -19 -2 0
-11 -3 -20 -6 -11 -4 -16 -1 -16 10 0 10 -8 16 -22 16 -43 0 -58 27 -58 103 0
77 18 127 56 152 33 21 34 64 1 58 -43 -8 -58 25 -59 128 -1 85 1 94 22 111
13 11 31 16 41 13 29 -10 25 40 -4 60 -13 8 -29 26 -35 39 -9 21 -7 25 24 42
26 14 34 25 34 46 0 24 -4 28 -30 28 -25 0 -30 4 -30 25 0 21 5 25 28 25 15 0
38 -7 50 -16z m182 -47 c0 -68 -10 -87 -47 -87 -23 0 -23 -2 -23 -106 0 -86 3
-105 14 -101 7 3 23 -1 35 -9 17 -12 21 -26 21 -68 0 -57 -12 -76 -47 -76 -20
0 -23 -5 -23 -35 0 -33 2 -35 35 -35 31 0 35 -3 35 -26 0 -24 -3 -26 -35 -22
-34 4 -35 3 -35 -29 0 -31 2 -33 35 -33 30 0 35 -3 35 -23 0 -13 -9 -32 -20
-42 -16 -14 -20 -15 -20 -4 0 8 -15 19 -32 24 l-33 10 -3 114 c-3 122 3 141
44 141 21 0 24 5 24 35 0 30 -3 35 -23 35 -42 0 -47 17 -47 145 0 128 5 145
47 145 19 0 23 5 23 30 0 28 -3 30 -35 30 -31 0 -35 3 -35 25 0 24 3 25 55 25
l55 0 0 -63z m-275 -148 c7 -20 -9 -49 -26 -49 -5 0 -9 21 -9 46 0 40 2 45 15
34 8 -6 17 -21 20 -31z m306 9 c23 -28 24 -42 3 -59 -9 -7 -20 -24 -25 -37
-15 -39 -34 -20 -37 37 -4 76 22 102 59 59z m119 -78 c17 -17 20 -33 20 -108
0 -75 -3 -92 -20 -110 -26 -27 -64 -28 -90 -2 -17 17 -20 33 -20 107 0 75 3
90 22 110 26 28 61 30 88 3z m-430 -255 c11 -13 11 -20 0 -40 -19 -36 -30 -31
-30 15 0 42 9 50 30 25z m327 -1 c8 -22 -18 -37 -36 -20 -7 8 -10 19 -7 25 10
16 36 13 43 -5z m57 -69 c-9 -14 -25 -25 -35 -25 -14 0 -19 7 -19 25 0 22 4
25 35 25 l35 0 -16 -25z m-383 -241 c7 -9 28 -23 47 -32 19 -9 34 -21 34 -27
-1 -12 -91 -37 -104 -29 -11 7 -10 104 1 104 5 0 14 -7 22 -16z"/>
<path d="M1650 1651 c0 -70 10 -92 33 -73 8 7 11 33 9 76 -3 57 -6 66 -23 66
-17 0 -19 -8 -19 -69z"/>
<path d="M1652 1088 c2 -66 6 -83 18 -83 12 0 16 17 18 83 3 77 2 82 -18 82
-20 0 -21 -5 -18 -82z"/>
<path d="M1982 1168 c-17 -17 -16 -154 1 -161 30 -11 38 9 35 88 -3 78 -12 97
-36 73z"/>
</g>
</svg>
